<svg width="175" height="22" viewBox="0 0 175 22" fill="none" xmlns="http://www.w3.org/2000/svg">
<path fill-rule="evenodd" clip-rule="evenodd" d="M13.8032 5.76965C14.5865 5.76965 15.2216 6.40469 15.2216 7.18806L15.2216 11.5154C15.2216 12.2988 14.5865 12.9338 13.8032 12.9338C13.0198 12.9338 12.3848 12.2988 12.3848 11.5154L12.3848 7.18806C12.3848 6.40469 13.0198 5.76965 13.8032 5.76965Z" fill="black"/>
<path fill-rule="evenodd" clip-rule="evenodd" d="M8.03322 0.840881C8.7502 0.840881 9.33142 1.42211 9.33142 2.13908L9.33142 16.5635C9.33142 17.2805 8.7502 17.8617 8.03322 17.8617C7.31624 17.8617 6.73502 17.2805 6.73502 16.5635L6.73502 2.13908C6.73502 1.42211 7.31625 0.840881 8.03322 0.840881Z" fill="#80A4FE"/>
<path fill-rule="evenodd" clip-rule="evenodd" d="M2.2636 5.76965C3.04697 5.76965 3.68201 6.40469 3.68201 7.18806L3.68201 11.5154C3.68201 12.2988 3.04697 12.9338 2.2636 12.9338C1.48024 12.9338 0.845199 12.2988 0.845199 11.5154L0.8452 7.18806C0.8452 6.40469 1.48024 5.76965 2.2636 5.76965Z" fill="black"/>
<path d="M167.933 16.8409V5.93176H170.426V7.74994H170.54C170.739 7.12021 171.08 6.63489 171.562 6.29398C172.05 5.94833 172.607 5.77551 173.232 5.77551C173.374 5.77551 173.532 5.78261 173.707 5.79682C173.887 5.80629 174.036 5.82286 174.155 5.84653V8.21159C174.046 8.17371 173.873 8.14057 173.636 8.11216C173.404 8.07902 173.179 8.06244 172.962 8.06244C172.493 8.06244 172.071 8.16424 171.697 8.36784C171.328 8.56671 171.037 8.84369 170.824 9.19881C170.611 9.55392 170.504 9.96349 170.504 10.4275V16.8409H167.933Z" fill="black"/>
<path d="M160.524 17.0539C159.458 17.0539 158.535 16.8196 157.754 16.3508C156.973 15.8821 156.367 15.2263 155.936 14.3835C155.51 13.5407 155.297 12.5558 155.297 11.4289C155.297 10.302 155.51 9.31483 155.936 8.46729C156.367 7.61975 156.973 6.96161 157.754 6.49286C158.535 6.02411 159.458 5.78973 160.524 5.78973C161.589 5.78973 162.512 6.02411 163.294 6.49286C164.075 6.96161 164.679 7.61975 165.105 8.46729C165.536 9.31483 165.751 10.302 165.751 11.4289C165.751 12.5558 165.536 13.5407 165.105 14.3835C164.679 15.2263 164.075 15.8821 163.294 16.3508C162.512 16.8196 161.589 17.0539 160.524 17.0539ZM160.538 14.9943C161.116 14.9943 161.599 14.8357 161.987 14.5184C162.375 14.1965 162.664 13.7656 162.853 13.2258C163.047 12.686 163.145 12.0847 163.145 11.4218C163.145 10.7542 163.047 10.1505 162.853 9.61076C162.664 9.06625 162.375 8.63301 161.987 8.31104C161.599 7.98907 161.116 7.82809 160.538 7.82809C159.946 7.82809 159.454 7.98907 159.061 8.31104C158.672 8.63301 158.381 9.06625 158.187 9.61076C157.998 10.1505 157.903 10.7542 157.903 11.4218C157.903 12.0847 157.998 12.686 158.187 13.2258C158.381 13.7656 158.672 14.1965 159.061 14.5184C159.454 14.8357 159.946 14.9943 160.538 14.9943Z" fill="black"/>
<path d="M153.732 5.93181V7.92045H147.461V5.93181H153.732ZM149.009 3.31818H151.58V13.5597C151.58 13.9053 151.632 14.1704 151.737 14.3551C151.845 14.535 151.987 14.6581 152.163 14.7244C152.338 14.7907 152.532 14.8239 152.745 14.8239C152.906 14.8239 153.053 14.812 153.185 14.7883C153.323 14.7647 153.427 14.7434 153.498 14.7244L153.931 16.7344C153.794 16.7817 153.597 16.8338 153.342 16.8906C153.091 16.9474 152.783 16.9806 152.418 16.9901C151.774 17.009 151.194 16.9119 150.678 16.6989C150.162 16.4811 149.753 16.1449 149.45 15.6903C149.151 15.2358 149.004 14.6676 149.009 13.9858V3.31818Z" fill="black"/>
<path d="M139.94 17.061C139.248 17.061 138.626 16.9379 138.072 16.6917C137.522 16.4408 137.087 16.0715 136.765 15.5838C136.448 15.0961 136.289 14.4948 136.289 13.7798C136.289 13.1643 136.403 12.6553 136.63 12.2528C136.857 11.8503 137.167 11.5284 137.56 11.2869C137.953 11.0454 138.396 10.8631 138.888 10.74C139.386 10.6122 139.899 10.5198 140.43 10.463C141.069 10.3967 141.587 10.3376 141.985 10.2855C142.383 10.2287 142.672 10.1434 142.852 10.0298C143.036 9.91142 143.129 9.72913 143.129 9.48291V9.4403C143.129 8.90526 142.97 8.49096 142.653 8.1974C142.335 7.90384 141.879 7.75706 141.282 7.75706C140.652 7.75706 140.153 7.89437 139.783 8.16899C139.419 8.44362 139.173 8.76795 139.045 9.14201L136.644 8.8011C136.834 8.13822 137.146 7.58424 137.582 7.13916C138.017 6.68935 138.55 6.35318 139.18 6.13064C139.809 5.90337 140.505 5.78973 141.268 5.78973C141.793 5.78973 142.317 5.85129 142.837 5.97439C143.358 6.0975 143.834 6.3011 144.265 6.58519C144.696 6.86454 145.041 7.2457 145.302 7.72865C145.567 8.21161 145.7 8.8153 145.7 9.53973V16.8409H143.228V15.3423H143.143C142.987 15.6453 142.766 15.9294 142.482 16.1946C142.203 16.455 141.85 16.6657 141.424 16.8267C141.003 16.9829 140.508 17.061 139.94 17.061ZM140.607 15.1718C141.123 15.1718 141.571 15.07 141.95 14.8664C142.328 14.6581 142.62 14.3835 142.823 14.0426C143.031 13.7017 143.136 13.33 143.136 12.9275V11.642C143.055 11.7083 142.918 11.7698 142.724 11.8267C142.534 11.8835 142.321 11.9332 142.085 11.9758C141.848 12.0184 141.613 12.0563 141.381 12.0894C141.149 12.1226 140.948 12.151 140.778 12.1747C140.394 12.2268 140.051 12.312 139.748 12.4304C139.445 12.5487 139.206 12.7144 139.031 12.9275C138.855 13.1359 138.768 13.4057 138.768 13.7372C138.768 14.2107 138.941 14.5681 139.286 14.8096C139.632 15.0511 140.072 15.1718 140.607 15.1718Z" fill="black"/>
<path d="M134.157 2.29541V16.8409H131.586V2.29541H134.157Z" fill="black"/>
<path d="M126.371 12.2528V5.93176H128.942V16.8409H126.449V14.9019H126.335C126.089 15.5127 125.684 16.0123 125.121 16.4005C124.562 16.7888 123.873 16.9829 123.054 16.9829C122.339 16.9829 121.707 16.8243 121.158 16.507C120.613 16.1851 120.187 15.7187 119.879 15.1079C119.571 14.4924 119.418 13.749 119.418 12.8778V5.93176H121.989V12.4801C121.989 13.1713 122.178 13.7206 122.557 14.1278C122.936 14.535 123.433 14.7386 124.048 14.7386C124.427 14.7386 124.794 14.6463 125.149 14.4616C125.504 14.2769 125.795 14.0023 126.023 13.6377C126.255 13.2684 126.371 12.8068 126.371 12.2528Z" fill="black"/>
<path d="M112.633 17.0539C111.544 17.0539 110.609 16.8148 109.828 16.3366C109.051 15.8584 108.452 15.1979 108.031 14.3551C107.614 13.5075 107.406 12.5322 107.406 11.4289C107.406 10.321 107.619 9.34324 108.045 8.4957C108.471 7.64343 109.073 6.98055 109.849 6.50706C110.63 6.02884 111.554 5.78973 112.619 5.78973C113.504 5.78973 114.288 5.95309 114.97 6.27979C115.656 6.60176 116.203 7.05867 116.61 7.65053C117.018 8.23765 117.25 8.9242 117.306 9.71019H114.849C114.75 9.18462 114.513 8.74665 114.139 8.39627C113.77 8.04115 113.275 7.8636 112.654 7.8636C112.129 7.8636 111.667 8.00564 111.27 8.28973C110.872 8.56909 110.562 8.97155 110.339 9.49712C110.121 10.0227 110.012 10.6524 110.012 11.3863C110.012 12.1297 110.121 12.7689 110.339 13.3039C110.557 13.8342 110.862 14.2438 111.255 14.5326C111.653 14.8167 112.119 14.9588 112.654 14.9588C113.033 14.9588 113.372 14.8877 113.67 14.7457C113.973 14.5989 114.226 14.3882 114.43 14.1136C114.634 13.839 114.773 13.5052 114.849 13.1122H117.306C117.245 13.884 117.018 14.5681 116.625 15.1647C116.232 15.7566 115.697 16.2206 115.02 16.5568C114.342 16.8882 113.547 17.0539 112.633 17.0539Z" fill="black"/>
<path d="M105.231 2.29541V16.8409H102.66V2.29541H105.231Z" fill="black"/>
<path d="M94.3146 17.061C93.6233 17.061 93.0007 16.9379 92.4467 16.6917C91.8975 16.4408 91.4619 16.0715 91.1399 15.5838C90.8227 15.0961 90.6641 14.4948 90.6641 13.7798C90.6641 13.1643 90.7777 12.6553 91.005 12.2528C91.2322 11.8503 91.5424 11.5284 91.9354 11.2869C92.3284 11.0454 92.7711 10.8631 93.2635 10.74C93.7607 10.6122 94.2744 10.5198 94.8047 10.463C95.4439 10.3967 95.9624 10.3376 96.3601 10.2855C96.7578 10.2287 97.0466 10.1434 97.2266 10.0298C97.4112 9.91142 97.5036 9.72913 97.5036 9.48291V9.4403C97.5036 8.90526 97.3449 8.49096 97.0277 8.1974C96.7105 7.90384 96.2536 7.75706 95.657 7.75706C95.0272 7.75706 94.5277 7.89437 94.1584 8.16899C93.7938 8.44362 93.5476 8.76795 93.4197 9.14201L91.0192 8.8011C91.2086 8.13822 91.5211 7.58424 91.9567 7.13916C92.3923 6.68935 92.925 6.35318 93.5547 6.13064C94.1844 5.90337 94.8804 5.78973 95.6428 5.78973C96.1683 5.78973 96.6915 5.85129 97.2124 5.97439C97.7332 6.0975 98.209 6.3011 98.6399 6.58519C99.0708 6.86454 99.4164 7.2457 99.6768 7.72865C99.942 8.21161 100.075 8.8153 100.075 9.53973V16.8409H97.603V15.3423H97.5178C97.3615 15.6453 97.1413 15.9294 96.8572 16.1946C96.5779 16.455 96.2251 16.6657 95.799 16.8267C95.3776 16.9829 94.8828 17.061 94.3146 17.061ZM94.9822 15.1718C95.4983 15.1718 95.9458 15.07 96.3246 14.8664C96.7034 14.6581 96.9946 14.3835 97.1982 14.0426C97.4065 13.7017 97.5107 13.33 97.5107 12.9275V11.642C97.4302 11.7083 97.2928 11.7698 97.0987 11.8267C96.9093 11.8835 96.6963 11.9332 96.4595 11.9758C96.2228 12.0184 95.9884 12.0563 95.7564 12.0894C95.5244 12.1226 95.3232 12.151 95.1527 12.1747C94.7692 12.2268 94.4259 12.312 94.1229 12.4304C93.8198 12.5487 93.5807 12.7144 93.4055 12.9275C93.2304 13.1359 93.1428 13.4057 93.1428 13.7372C93.1428 14.2107 93.3156 14.5681 93.6612 14.8096C94.0069 15.0511 94.4472 15.1718 94.9822 15.1718Z" fill="black"/>
<path d="M88.8761 7.20309H86.2199C86.1441 6.76749 86.0044 6.3816 85.8008 6.04542C85.5972 5.70451 85.3439 5.41569 85.0409 5.17894C84.7379 4.9422 84.3922 4.76464 84.004 4.64627C83.6204 4.52317 83.2061 4.46162 82.7611 4.46162C81.9703 4.46162 81.2696 4.66048 80.6588 5.05821C80.048 5.4512 79.5698 6.02885 79.2241 6.79116C78.8785 7.54874 78.7057 8.4744 78.7057 9.56815C78.7057 10.6808 78.8785 11.6183 79.2241 12.3806C79.5745 13.1382 80.0527 13.7111 80.6588 14.0994C81.2696 14.4829 81.968 14.6747 82.754 14.6747C83.1896 14.6747 83.5968 14.6179 83.9756 14.5042C84.3591 14.3859 84.7024 14.213 85.0054 13.9858C85.3131 13.7585 85.5712 13.4791 85.7795 13.1477C85.9926 12.8163 86.1394 12.4375 86.2199 12.0113L88.8761 12.0255C88.7767 12.7168 88.5613 13.3655 88.2298 13.9716C87.9031 14.5776 87.4746 15.1127 86.9443 15.5767C86.414 16.036 85.7937 16.3958 85.0835 16.6562C84.3733 16.9119 83.5849 17.0397 82.7184 17.0397C81.44 17.0397 80.2989 16.7438 79.2952 16.152C78.2914 15.5601 77.5006 14.7055 76.923 13.588C76.3453 12.4706 76.0565 11.1306 76.0565 9.56815C76.0565 8.00091 76.3477 6.66095 76.9301 5.54826C77.5125 4.43084 78.3056 3.5762 79.3094 2.98434C80.3131 2.39249 81.4495 2.09656 82.7184 2.09656C83.5281 2.09656 84.2809 2.21019 84.977 2.43747C85.673 2.66474 86.2933 2.99855 86.8378 3.43889C87.3823 3.87449 87.8297 4.40953 88.1801 5.044C88.5352 5.67374 88.7672 6.39343 88.8761 7.20309Z" fill="black"/>
<path d="M64.3253 17.0539C63.2315 17.0539 62.2869 16.8267 61.4915 16.3721C60.7007 15.9128 60.0923 15.2642 59.6662 14.4261C59.24 13.5833 59.027 12.5913 59.027 11.4502C59.027 10.3281 59.24 9.34324 59.6662 8.4957C60.0971 7.64343 60.6984 6.98055 61.4702 6.50706C62.2419 6.02884 63.1487 5.78973 64.1903 5.78973C64.8627 5.78973 65.4971 5.89864 66.0937 6.11644C66.6951 6.32951 67.2254 6.66095 67.6847 7.11076C68.1487 7.56057 68.5132 8.13348 68.7784 8.82951C69.0436 9.52079 69.1761 10.3447 69.1761 11.3011V12.0894H60.2344V10.3565H66.7116C66.7069 9.86407 66.6004 9.4261 66.392 9.04257C66.1837 8.65432 65.8925 8.34892 65.5185 8.12638C65.1491 7.90384 64.7183 7.79257 64.2258 7.79257C63.7003 7.79257 63.2386 7.92042 62.8409 8.1761C62.4432 8.42704 62.133 8.75848 61.9105 9.17041C61.6927 9.57761 61.5814 10.0251 61.5767 10.5127V12.0255C61.5767 12.66 61.6927 13.2045 61.9247 13.6591C62.1567 14.1089 62.481 14.4545 62.8977 14.696C63.3144 14.9327 63.8021 15.0511 64.3608 15.0511C64.7348 15.0511 65.0734 14.999 65.3764 14.8948C65.6794 14.7859 65.9422 14.6273 66.1648 14.419C66.3873 14.2107 66.5554 13.9526 66.669 13.6448L69.0696 13.9147C68.9181 14.5492 68.6293 15.1032 68.2031 15.5767C67.7817 16.0454 67.2419 16.41 66.5838 16.6704C65.9257 16.9261 65.1728 17.0539 64.3253 17.0539Z" fill="black"/>
<path d="M51.7401 21.1591C50.8168 21.1591 50.0237 21.0336 49.3608 20.7826C48.698 20.5364 48.1653 20.205 47.7628 19.7883C47.3604 19.3716 47.081 18.91 46.9248 18.4034L49.2401 17.8423C49.3443 18.0554 49.4958 18.2661 49.6946 18.4744C49.8935 18.6875 50.161 18.8626 50.4972 19C50.8381 19.142 51.2666 19.213 51.7827 19.213C52.5119 19.213 53.1156 19.0355 53.5938 18.6804C54.072 18.33 54.3111 17.7523 54.3111 16.9474V14.8806H54.1833C54.0507 15.1458 53.8566 15.418 53.6009 15.6974C53.3499 15.9768 53.0161 16.2111 52.5995 16.4005C52.1875 16.5899 51.6691 16.6846 51.0441 16.6846C50.206 16.6846 49.4461 16.4881 48.7642 16.0951C48.0872 15.6974 47.5474 15.1055 47.1449 14.3196C46.7472 13.5288 46.5483 12.5393 46.5483 11.3508C46.5483 10.1529 46.7472 9.14201 47.1449 8.31814C47.5474 7.48954 48.0895 6.86218 48.7713 6.43604C49.4532 6.00517 50.2131 5.78973 51.0512 5.78973C51.6904 5.78973 52.216 5.89864 52.6279 6.11644C53.0446 6.32951 53.376 6.58756 53.6222 6.89059C53.8684 7.18888 54.0554 7.4706 54.1833 7.73576H54.3253V5.93178H56.8608V17.0184C56.8608 17.9512 56.6383 18.723 56.1932 19.3338C55.7482 19.9446 55.1397 20.4015 54.3679 20.7045C53.5962 21.0075 52.7202 21.1591 51.7401 21.1591ZM51.7614 14.6676C52.3059 14.6676 52.7699 14.535 53.1535 14.2698C53.537 14.0047 53.8282 13.6235 54.027 13.1264C54.2259 12.6292 54.3253 12.0326 54.3253 11.3366C54.3253 10.6501 54.2259 10.0487 54.027 9.53263C53.8329 9.01653 53.5441 8.61644 53.1606 8.33235C52.7818 8.04352 52.3154 7.89911 51.7614 7.89911C51.1885 7.89911 50.7103 8.04826 50.3267 8.34655C49.9432 8.64485 49.6544 9.05441 49.4603 9.57524C49.2661 10.0913 49.1691 10.6785 49.1691 11.3366C49.1691 12.0042 49.2661 12.589 49.4603 13.0909C49.6591 13.588 49.9503 13.9763 50.3338 14.2556C50.7221 14.5303 51.198 14.6676 51.7614 14.6676Z" fill="black"/>
<path d="M34.8367 16.8409H32.0242L37.1449 2.29541H40.3977L45.5256 16.8409H42.7131L38.8281 5.27837H38.7145L34.8367 16.8409ZM34.929 11.1377H42.5995V13.2542H34.929V11.1377Z" fill="black"/>
</svg>
